<svg width="26" height="25" viewBox="0 0 26 25" fill="none" xmlns="http://www.w3.org/2000/svg">
<path d="M10.1321 25C9.92628 25 9.74158 24.8739 9.66648 24.6823L0.267213 0.6823C0.138773 0.3544 0.380593 0 0.732783 0H6.66308C6.87048 0 7.05638 0.1281 7.13028 0.3219L15.0009 20.9647C15.1257 21.292 14.884 21.6429 14.5337 21.6429H11.8654C11.5135 21.6429 11.2717 21.2889 11.3996 20.961L19.4577 0.3182C19.5326 0.1263 19.7175 0 19.9234 0H25.2663C25.6187 0 25.8606 0.3548 25.7317 0.6829L16.3009 24.6829C16.2258 24.8742 16.0411 25 15.8356 25H10.1321Z" fill="#1F1F1F"/>
</svg>
